<?xml version="1.0" encoding="iso-8859-1"?>
<!-- Generator: Adobe Illustrator 19.0.0, SVG Export Plug-In . SVG Version: 6.00 Build 0)  -->
<svg xmlns="http://www.w3.org/2000/svg" xmlns:xlink="http://www.w3.org/1999/xlink" version="1.1" id="Layer_1" x="0px" y="0px" viewBox="0 0 512 512" style="enable-background:new 0 0 512 512;" xml:space="preserve">
<path style="fill:#98A09B;" d="M441.854,135.933h-15.583c-13.39,0-293.062,0-305.219,0H70.146c-10.9,0-19.737,8.838-19.737,19.737  v328.945c0,10.901,8.838,19.738,19.737,19.738h50.906v-0.06h269.899v0.06h50.903c10.901,0,19.737-8.838,19.737-19.738V155.67  C461.591,144.771,452.755,135.933,441.854,135.933z"/>
<path style="fill:#C6C6C6;" d="M443.788,136.031c-9.991,0.973-17.802,9.393-17.802,19.639v328.945  c0,10.248,7.812,18.668,17.802,19.64c9.994-0.972,17.803-9.393,17.803-19.64V155.67  C461.591,145.424,453.781,137.004,443.788,136.031z"/>
<g>
	<path style="fill:#818984;" d="M86.65,484.615V155.67c0-10.9,8.838-19.737,19.736-19.737h-36.24   c-10.9,0-19.737,8.838-19.737,19.737v328.945c0,10.901,8.838,19.738,19.737,19.738h36.24   C95.487,504.354,86.65,495.517,86.65,484.615z"/>
	<rect x="390.954" y="504.291" style="fill:#818984;" width="36.242" height="0.06"/>
</g>
<path style="fill:#DDDDDD;" d="M374,7.645H138.004c-9.364,0-16.952,7.59-16.952,16.953c0,11.929,0,468.13,0,479.755h269.899  c0-20.277,0-462.723,0-479.755C390.952,15.236,383.363,7.645,374,7.645z"/>
<path style="fill:#C6C6C6;" d="M147.777,24.598c0-9.363,7.59-16.953,16.953-16.953h-26.726c-9.364,0-16.952,7.59-16.952,16.953  c0,11.929,0,468.13,0,479.755h26.725C147.777,496.057,147.777,32.413,147.777,24.598z"/>
<path style="fill:#88DCE5;" d="M319.05,504.354v-110.91c0-10.9-8.838-19.737-19.737-19.737h-86.621  c-10.9,0-19.738,8.838-19.738,19.737v110.91H319.05z"/>
<path style="fill:#74C4C4;" d="M256.002,373.708H212.69c-10.9,0-19.738,8.838-19.738,19.737v110.91h63.049V373.708H256.002z"/>
<path d="M441.964,128.363h-43.433V85.739c0-4.143-3.357-7.5-7.5-7.5c-4.143,0-7.5,3.357-7.5,7.5c0,4.259,0,400.242,0,411.259  h-56.943V433.76c0-4.143-3.357-7.5-7.5-7.5s-7.5,3.357-7.5,7.5v63.238h-48.083V381.277h35.835c6.753,0,12.248,5.494,12.248,12.248  v13.234c0,4.143,3.357,7.5,7.5,7.5s7.5-3.357,7.5-7.5v-13.234c0-15.025-12.224-27.249-27.249-27.249c-9.176,0-77.497,0-86.672,0  c-15.025,0-27.249,12.224-27.249,27.249v103.474h-56.942c0-4.053,0-466.348,0-472.536c0-5.218,4.244-9.463,9.461-9.463H374.07  c5.217,0,9.462,4.244,9.462,9.463v35.274c0,4.143,3.357,7.5,7.5,7.5c4.143,0,7.5-3.357,7.5-7.5V24.463  C398.532,10.975,387.558,0,374.069,0H137.935c-13.488,0-24.461,10.975-24.461,24.463v103.9H70.037  c-15.025,0-27.249,12.224-27.249,27.249V484.75c0,15.025,12.224,27.25,27.249,27.25c19.883,0,358.276,0,371.927,0  c15.025,0,27.249-12.225,27.249-27.25V155.612C469.213,140.587,456.989,128.363,441.964,128.363z M57.789,484.75V155.612  c0-6.753,5.494-12.248,12.248-12.248h43.437v353.634H70.037C63.283,496.999,57.789,491.505,57.789,484.75z M200.418,496.999V393.525  c0-6.753,5.494-12.248,12.248-12.248h35.836v115.722H200.418z M454.212,484.75c0,6.754-5.494,12.249-12.248,12.249h-43.433V143.364  h43.433c6.753,0,12.248,5.494,12.248,12.248V484.75z"/>
<path d="M99.115,433.714h-25.13c-4.143,0-7.5,3.357-7.5,7.5c0,4.143,3.357,7.5,7.5,7.5h25.13c4.143,0,7.5-3.357,7.5-7.5  C106.615,437.071,103.258,433.714,99.115,433.714z"/>
<path d="M99.115,398.846h-25.13c-4.143,0-7.5,3.357-7.5,7.5c0,4.143,3.357,7.5,7.5,7.5h25.13c4.143,0,7.5-3.357,7.5-7.5  C106.615,402.203,103.258,398.846,99.115,398.846z"/>
<path d="M99.115,329.113h-25.13c-4.143,0-7.5,3.357-7.5,7.5s3.357,7.5,7.5,7.5h25.13c4.143,0,7.5-3.357,7.5-7.5  S103.258,329.113,99.115,329.113z"/>
<path d="M99.115,259.379h-25.13c-4.143,0-7.5,3.357-7.5,7.5c0,4.143,3.357,7.5,7.5,7.5h25.13c4.143,0,7.5-3.357,7.5-7.5  C106.615,262.736,103.258,259.379,99.115,259.379z"/>
<path d="M99.115,189.645h-25.13c-4.143,0-7.5,3.357-7.5,7.5c0,4.143,3.357,7.5,7.5,7.5h25.13c4.143,0,7.5-3.357,7.5-7.5  C106.615,193.003,103.258,189.645,99.115,189.645z"/>
<path d="M99.115,363.979h-25.13c-4.143,0-7.5,3.357-7.5,7.5s3.357,7.5,7.5,7.5h25.13c4.143,0,7.5-3.357,7.5-7.5  S103.258,363.979,99.115,363.979z"/>
<path d="M99.115,294.246h-25.13c-4.143,0-7.5,3.357-7.5,7.5s3.357,7.5,7.5,7.5h25.13c4.143,0,7.5-3.357,7.5-7.5  S103.258,294.246,99.115,294.246z"/>
<path d="M99.115,224.513h-25.13c-4.143,0-7.5,3.357-7.5,7.5c0,4.143,3.357,7.5,7.5,7.5h25.13c4.143,0,7.5-3.357,7.5-7.5  C106.615,227.87,103.258,224.513,99.115,224.513z"/>
<path d="M438.936,433.714h-25.13c-4.143,0-7.5,3.357-7.5,7.5c0,4.143,3.357,7.5,7.5,7.5h25.13c4.143,0,7.5-3.357,7.5-7.5  C446.437,437.071,443.079,433.714,438.936,433.714z"/>
<path d="M438.936,398.846h-25.13c-4.143,0-7.5,3.357-7.5,7.5c0,4.143,3.357,7.5,7.5,7.5h25.13c4.143,0,7.5-3.357,7.5-7.5  C446.437,402.203,443.079,398.846,438.936,398.846z"/>
<path d="M438.936,329.113h-25.13c-4.143,0-7.5,3.357-7.5,7.5s3.357,7.5,7.5,7.5h25.13c4.143,0,7.5-3.357,7.5-7.5  S443.079,329.113,438.936,329.113z"/>
<path d="M438.936,259.379h-25.13c-4.143,0-7.5,3.357-7.5,7.5c0,4.143,3.357,7.5,7.5,7.5h25.13c4.143,0,7.5-3.357,7.5-7.5  C446.437,262.736,443.079,259.379,438.936,259.379z"/>
<path d="M438.936,189.645h-25.13c-4.143,0-7.5,3.357-7.5,7.5c0,4.143,3.357,7.5,7.5,7.5h25.13c4.143,0,7.5-3.357,7.5-7.5  C446.437,193.003,443.079,189.645,438.936,189.645z"/>
<path d="M438.936,363.979h-25.13c-4.143,0-7.5,3.357-7.5,7.5s3.357,7.5,7.5,7.5h25.13c4.143,0,7.5-3.357,7.5-7.5  S443.079,363.979,438.936,363.979z"/>
<path d="M438.936,294.246h-25.13c-4.143,0-7.5,3.357-7.5,7.5s3.357,7.5,7.5,7.5h25.13c4.143,0,7.5-3.357,7.5-7.5  S443.079,294.246,438.936,294.246z"/>
<path d="M438.936,224.513h-25.13c-4.143,0-7.5,3.357-7.5,7.5c0,4.143,3.357,7.5,7.5,7.5h25.13c4.143,0,7.5-3.357,7.5-7.5  C446.437,227.87,443.079,224.513,438.936,224.513z"/>
<path d="M347.506,259.379H164.494c-4.143,0-7.5,3.357-7.5,7.5c0,4.143,3.357,7.5,7.5,7.5h183.011c4.143,0,7.5-3.357,7.5-7.5  C355.006,262.736,351.649,259.379,347.506,259.379z"/>
<path d="M347.506,189.645H164.494c-4.143,0-7.5,3.357-7.5,7.5c0,4.143,3.357,7.5,7.5,7.5h183.011c4.143,0,7.5-3.357,7.5-7.5  C355.006,193.003,351.649,189.645,347.506,189.645z"/>
<path d="M347.506,294.246H164.494c-4.143,0-7.5,3.357-7.5,7.5s3.357,7.5,7.5,7.5h183.011c4.143,0,7.5-3.357,7.5-7.5  S351.649,294.246,347.506,294.246z"/>
<path d="M347.506,329.113H164.494c-4.143,0-7.5,3.357-7.5,7.5s3.357,7.5,7.5,7.5h183.011c4.143,0,7.5-3.357,7.5-7.5  S351.649,329.113,347.506,329.113z"/>
<path d="M347.506,224.513H164.494c-4.143,0-7.5,3.357-7.5,7.5c0,4.143,3.357,7.5,7.5,7.5h183.011c4.143,0,7.5-3.357,7.5-7.5  C355.006,227.87,351.649,224.513,347.506,224.513z"/>
<path d="M347.506,119.911H164.494c-4.143,0-7.5,3.357-7.5,7.5s3.357,7.5,7.5,7.5h183.011c4.143,0,7.5-3.357,7.5-7.5  S351.649,119.911,347.506,119.911z"/>
<path d="M347.506,154.779H164.494c-4.143,0-7.5,3.357-7.5,7.5s3.357,7.5,7.5,7.5h183.011c4.143,0,7.5-3.357,7.5-7.5  S351.649,154.779,347.506,154.779z"/>
<path d="M347.506,50.178H164.494c-4.143,0-7.5,3.357-7.5,7.5s3.357,7.5,7.5,7.5h183.011c4.143,0,7.5-3.357,7.5-7.5  S351.649,50.178,347.506,50.178z"/>
<path d="M347.506,85.045H164.494c-4.143,0-7.5,3.357-7.5,7.5c0,4.143,3.357,7.5,7.5,7.5h183.011c4.143,0,7.5-3.357,7.5-7.5  C355.006,88.402,351.649,85.045,347.506,85.045z"/>
<g>
</g>
<g>
</g>
<g>
</g>
<g>
</g>
<g>
</g>
<g>
</g>
<g>
</g>
<g>
</g>
<g>
</g>
<g>
</g>
<g>
</g>
<g>
</g>
<g>
</g>
<g>
</g>
<g>
</g>
</svg>
